<?xml version="1.0" encoding="UTF-8"?>
<!-- Generator: visioncortex VTracer 0.6.12 -->
<svg version="1.1" xmlns="http://www.w3.org/2000/svg" width="1024" height="1024">
<path d="M0,0 L1024,0 L1024,1024 L0,1024 Z " fill="#F6F5F0" transform="translate(0,0)"/>
<path d="M0,0 L322,0 L332,3 L341,8 L349,15 L356,26 L360,39 L360,226 L355,241 L349,250 L342,257 L328,264 L319,266 L286,266 L286,287 L249,287 L249,266 L188,266 L188,287 L151,287 L151,266 L90,266 L90,287 L52,287 L52,266 L2,266 L-11,262 L-24,253 L-32,242 L-37,229 L-37,35 L-32,23 L-25,14 L-17,7 L-5,1 Z " fill="#3B6CBD" transform="translate(324,412)"/>
<path d="M0,0 L153,0 L166,2 L178,5 L194,11 L208,19 L220,28 L235,43 L244,56 L252,71 L258,89 L260,100 L260,295 L257,307 L252,320 L245,331 L234,343 L226,349 L222,350 L221,176 L217,160 L209,144 L201,133 L191,124 L178,116 L164,111 L149,108 L-103,107 L-103,93 L-98,76 L-90,60 L-83,49 L-75,39 L-63,27 L-47,16 L-31,8 L-10,2 Z " fill="#243747" transform="translate(493,273)"/>
<path d="M0,0 L416,0 L424,4 L430,12 L430,26 L426,34 L421,38 L416,40 L-1,40 L-9,35 L-14,28 L-14,13 L-10,6 L-3,1 Z " fill="#273949" transform="translate(285,713)"/>
<path d="M0,0 L6,0 L27,12 L42,21 L57,30 L81,44 L90,50 L93,54 L93,60 L89,66 L75,74 L47,91 L18,108 L9,114 L0,115 L-5,111 L-6,109 L-6,6 L-2,1 Z " fill="#2A4D90" transform="translate(445,483)"/>
<path d="M0,0 L5,0 L14,11 L26,27 L36,40 L35,44 L34,45 L21,45 L21,84 L-17,84 L-17,63 L-67,63 L-67,62 L-17,62 L-17,45 L-30,45 L-31,44 L-31,39 L-18,23 L-8,10 Z " fill="#37D3BA" transform="translate(393,615)"/>
<path d="M0,0 L5,1 L12,9 L25,26 L35,39 L35,44 L34,45 L21,45 L21,84 L-16,84 L-17,63 L-17,45 L-30,45 L-31,44 L-31,39 L-20,25 L-9,11 L-1,1 Z " fill="#36D4B9" transform="translate(589,615)"/>
<path d="M0,0 L5,0 L17,15 L27,28 L36,40 L35,45 L22,46 L21,84 L-16,84 L-17,46 L-30,45 L-31,44 L-31,39 L-19,24 L-8,10 Z " fill="#35D5B9" transform="translate(491,615)"/>
</svg>
