<?xml version="1.0" encoding="UTF-8"?>
<!-- Generator: visioncortex VTracer 0.6.12 -->
<svg version="1.1" xmlns="http://www.w3.org/2000/svg" width="1024" height="1024">
<path d="M0,0 L1024,0 L1024,1024 L0,1024 Z " fill="#F6F5F0" transform="translate(0,0)"/>
<path d="M0,0 L7,0 L7,24 L12,25 L17,30 L18,33 L61,34 L63,28 L68,24 L71,23 L72,1 L78,1 L78,24 L83,25 L88,30 L89,34 L133,34 L134,29 L139,24 L143,24 L143,1 L149,1 L150,23 L157,27 L160,31 L160,34 L203,34 L203,41 L160,42 L157,48 L153,51 L150,51 L150,95 L155,97 L160,103 L160,105 L203,105 L203,112 L160,112 L158,118 L152,123 L150,123 L150,167 L155,169 L160,175 L160,177 L203,177 L203,184 L160,185 L157,190 L152,194 L150,194 L150,238 L156,240 L160,245 L160,248 L203,248 L203,255 L160,255 L158,261 L153,265 L150,265 L150,310 L156,312 L160,317 L160,320 L203,320 L203,327 L160,328 L156,334 L151,337 L150,374 L142,374 L142,337 L137,335 L133,330 L133,327 L89,328 L85,334 L81,337 L78,337 L78,373 L72,373 L72,337 L67,336 L62,331 L61,328 L17,327 L16,331 L11,336 L7,337 L7,373 L0,373 L0,337 L-4,336 L-9,331 L-10,328 L-53,327 L-53,320 L-10,320 L-9,316 L-4,311 L0,310 L0,265 L-5,264 L-9,259 L-10,255 L-116,255 L-116,213 L-206,213 L-206,207 L-110,207 L-110,248 L-10,248 L-8,242 L-3,238 L0,238 L0,194 L-4,193 L-9,188 L-10,185 L-206,184 L-206,177 L-10,177 L-8,172 L-2,167 L0,167 L-1,123 L-7,119 L-10,114 L-10,112 L-109,112 L-109,155 L-206,155 L-206,148 L-116,148 L-116,106 L-10,106 L-9,101 L-2,95 L0,95 L0,51 L-4,50 L-9,45 L-10,42 L-53,41 L-53,34 L-10,34 L-9,30 L-4,25 L0,24 Z " fill="#2D65BF" transform="translate(566,325)"/>
<path d="M0,0 L79,0 L79,23 L103,23 L103,132 L0,132 Z " fill="#263143" transform="translate(245,435)"/>
<path d="M0,0 L43,0 L47,7 L54,10 L54,54 L48,58 L45,61 L44,65 L0,65 L-4,58 L-11,54 L-11,10 L-5,7 L-1,2 Z " fill="#F4F3F0" transform="translate(655,580)"/>
<path d="M0,0 L43,0 L47,7 L54,10 L54,55 L47,58 L43,65 L-1,65 L-4,58 L-11,54 L-11,11 L-5,7 L-2,4 Z " fill="#F4F3F0" transform="translate(584,580)"/>
<path d="M0,0 L43,0 L48,8 L54,10 L54,55 L48,58 L44,63 L43,65 L0,65 L-4,59 L-10,55 L-10,10 L-4,7 Z " fill="#F4F4F0" transform="translate(655,437)"/>
<path d="M0,0 L43,0 L47,7 L53,11 L53,55 L47,59 L43,65 L0,65 L-4,59 L-8,56 L-11,55 L-11,11 L-4,7 Z " fill="#F5F4F0" transform="translate(584,437)"/>
<path d="M0,0 L44,0 L47,6 L54,11 L54,54 L47,58 L44,64 L0,64 L-4,58 L-11,54 L-11,10 L-5,7 L-2,4 Z " fill="#F4F3F0" transform="translate(655,366)"/>
<path d="M0,0 L44,0 L47,5 L47,7 L52,9 L54,10 L54,54 L46,60 L44,64 L0,64 L-3,58 L-10,54 L-10,10 L-4,7 L-1,3 Z " fill="#F6F4F0" transform="translate(583,366)"/>
<path d="M0,0 L44,0 L48,6 L54,10 L54,54 L48,58 L44,64 L1,64 L-3,58 L-7,55 L-10,54 L-10,10 L-4,7 L-1,3 Z " fill="#F6F5F0" transform="translate(583,509)"/>
<path d="M0,0 L44,0 L50,8 L55,10 L55,54 L49,57 L45,62 L44,64 L1,64 L-3,57 L-9,54 L-9,10 L-2,5 Z " fill="#F6F4F0" transform="translate(654,509)"/>
<path d="M0,0 L2,0 L2,44 L8,44 L8,1 L9,1 L9,45 L14,47 L19,53 L19,62 L16,68 L10,72 L9,116 L8,116 L8,72 L2,72 L2,116 L1,116 L1,72 L-4,70 L-8,66 L-9,63 L-9,53 L-3,46 L1,45 Z " fill="#3CCFC9" transform="translate(636,447)"/>
<path d="M0,0 L71,0 L71,7 L0,7 Z " fill="#F0EFED" transform="translate(261,520)"/>
<path d="M0,0 L71,0 L71,7 L0,7 Z " fill="#F4F3F0" transform="translate(261,496)"/>
<path d="M0,0 L71,0 L71,7 L0,7 Z " fill="#EFEEEC" transform="translate(261,473)"/>
<path d="M0,0 L46,0 L46,7 L0,7 Z " fill="#F2F2F0" transform="translate(261,543)"/>
</svg>
