<?xml version="1.0" encoding="UTF-8"?>
<!-- Generator: visioncortex VTracer 0.6.12 -->
<svg version="1.1" xmlns="http://www.w3.org/2000/svg" width="1344" height="768">
<path d="M0,0 L1344,0 L1344,768 L0,768 Z " fill="#171923" transform="translate(0,0)"/>
<path d="M0,0 L27,1 L35,4 L38,7 L27,7 L27,9 L42,9 L45,14 L45,17 L52,17 L52,20 L42,20 L42,24 L47,24 L47,33 L55,33 L56,38 L42,38 L42,40 L46,40 L46,42 L42,42 L42,44 L47,44 L47,53 L55,53 L55,55 L46,55 L41,54 L41,56 L46,56 L47,61 L42,61 L42,63 L46,63 L46,65 L43,65 L43,67 L46,68 L46,71 L41,71 L41,73 L46,73 L46,75 L43,75 L43,77 L51,77 L51,79 L47,79 L47,86 L44,93 L43,94 L33,94 L33,96 L40,95 L51,95 L51,98 L39,99 L31,103 L2,103 L2,101 L10,101 L10,99 L1,99 L1,101 L-13,101 L-13,103 L-24,103 L-25,107 L-25,146 L-23,150 L653,150 L653,156 L573,156 L573,168 L571,168 L571,156 L75,156 L75,168 L73,168 L73,156 L-358,156 L-358,150 L-30,150 L-30,147 L-28,146 L-28,108 L-30,106 L-30,103 L-89,103 L-95,100 L-102,92 L-104,86 L-104,17 L-100,9 L-93,3 L-88,1 L-2,1 L0,2 Z " fill="#181C29" transform="translate(525,430)"/>
<path d="M0,0 L122,0 L132,6 L137,14 L138,17 L138,84 L134,94 L127,100 L123,102 L64,102 L63,106 L61,106 L61,134 L294,134 L294,123 L193,123 L193,46 L206,46 L206,16 L210,8 L217,2 L222,0 L268,0 L268,9 L223,10 L217,15 L216,17 L215,47 L253,47 L254,44 L259,45 L260,49 L258,51 L254,50 L253,49 L215,48 L216,84 L219,90 L224,93 L267,94 L267,102 L221,102 L214,98 L208,91 L206,85 L206,48 L195,48 L195,121 L294,121 L293,112 L292,111 L292,105 L277,105 L277,93 L403,93 L403,105 L298,105 L298,111 L296,112 L295,135 L60,135 L60,106 L57,105 L57,102 L-1,102 L-9,97 L-13,92 L-16,85 L-16,82 L-20,82 L-20,80 L-16,80 L-16,62 L-15,58 L-23,58 L-23,56 L-16,56 L-16,47 L-11,47 L-11,45 L-16,45 L-16,17 L-25,17 L-25,15 L-14,15 L-13,10 L-9,5 Z " fill="#171924" transform="translate(658,431)"/>
<path d="M0,0 L121,0 L131,5 L137,14 L138,16 L138,86 L133,95 L125,101 L123,102 L-2,102 L-9,98 L-14,92 L-16,87 L-16,14 L-12,8 L-5,2 Z " fill="#161923" transform="translate(218,431)"/>
<path d="M0,0 L27,1 L35,4 L38,7 L27,7 L27,9 L42,9 L45,14 L45,17 L52,17 L52,20 L42,20 L42,24 L47,24 L47,33 L55,33 L56,38 L42,38 L42,40 L46,40 L46,42 L42,42 L42,44 L47,44 L47,53 L55,53 L55,55 L46,55 L41,54 L41,56 L46,56 L47,61 L42,61 L42,63 L46,63 L46,65 L43,65 L43,67 L46,68 L38,68 L38,63 L31,63 L31,61 L38,61 L38,46 L39,44 L34,44 L34,42 L38,42 L38,40 L34,40 L34,38 L38,38 L38,26 L31,25 L31,22 L37,22 L35,16 L32,12 L27,11 L2,10 L-87,11 L-93,16 L-94,18 L-94,85 L-91,91 L-88,93 L6,94 L31,93 L36,88 L37,85 L45,85 L45,91 L43,94 L33,94 L33,96 L40,95 L51,95 L51,98 L39,99 L31,103 L2,103 L2,101 L10,101 L10,99 L1,99 L1,101 L-13,101 L-13,103 L-24,103 L-25,107 L-25,146 L-23,150 L653,150 L653,156 L573,156 L573,168 L571,168 L571,156 L75,156 L75,168 L73,168 L73,156 L-358,156 L-358,150 L-30,150 L-30,147 L-28,146 L-28,108 L-30,106 L-30,103 L-89,103 L-95,100 L-102,92 L-104,86 L-104,17 L-100,9 L-93,3 L-88,1 L-2,1 L0,2 Z " fill="#3D75D5" transform="translate(525,430)"/>
<path d="M0,0 L122,0 L132,6 L137,14 L138,17 L138,84 L134,94 L127,100 L123,102 L64,102 L63,106 L61,106 L61,134 L294,134 L294,123 L193,123 L193,46 L206,46 L206,16 L210,8 L217,2 L222,0 L268,0 L268,9 L223,10 L217,15 L216,17 L215,47 L253,47 L254,44 L259,45 L260,49 L258,51 L254,50 L253,49 L215,48 L216,84 L219,90 L224,93 L267,94 L267,102 L221,102 L214,98 L208,91 L206,85 L206,48 L195,48 L195,121 L294,121 L293,112 L292,111 L292,105 L277,105 L277,93 L403,93 L403,105 L298,105 L298,111 L296,112 L295,135 L60,135 L60,106 L57,105 L57,102 L-1,102 L-9,97 L-13,92 L-16,85 L-16,82 L-20,82 L-20,80 L-16,80 L-16,62 L-15,58 L-23,58 L-23,56 L-16,56 L-16,47 L-11,47 L-11,45 L-16,45 L-16,17 L-25,17 L-25,15 L-14,15 L-13,10 L-9,5 Z M2,9 L-4,13 L-7,18 L-7,84 L-3,90 L3,94 L119,94 L126,90 L129,84 L129,18 L125,12 L121,9 Z " fill="#437CDD" transform="translate(658,431)"/>
<path d="M0,0 L121,0 L131,5 L137,14 L138,16 L138,86 L133,95 L125,101 L123,102 L-2,102 L-9,98 L-14,92 L-16,87 L-16,14 L-12,8 L-5,2 Z M1,9 L-5,13 L-8,18 L-8,83 L-5,89 L1,94 L119,94 L126,90 L129,84 L129,18 L125,12 L120,9 Z " fill="#437CDD" transform="translate(218,431)"/>
<path d="M0,0 L221,0 L221,13 L-1,13 L-1,1 Z " fill="#43D0C1" transform="translate(936,504)"/>
<path d="M0,0 L221,0 L221,12 L0,12 Z " fill="#49D9C6" transform="translate(936,466)"/>
<path d="M0,0 L221,0 L221,12 L0,12 Z " fill="#437CDE" transform="translate(936,428)"/>
<path d="M0,0 L141,0 L141,13 L0,13 Z " fill="#4277D3" transform="translate(935,485)"/>
<path d="M0,0 L328,0 L333,2 L332,5 L0,5 Z " fill="#3E7AE2" transform="translate(167,580)"/>
<path d="M0,0 L125,0 L125,12 L0,12 Z " fill="#427CDD" transform="translate(936,447)"/>
<path d="M0,0 L27,1 L35,4 L38,7 L27,7 L27,9 L42,9 L45,14 L45,17 L52,17 L52,20 L42,20 L42,24 L47,24 L47,33 L55,33 L56,38 L42,38 L42,40 L46,40 L46,42 L42,42 L42,44 L47,44 L47,53 L55,53 L55,55 L46,55 L41,54 L41,56 L46,56 L47,61 L42,61 L42,63 L46,63 L46,65 L43,65 L43,67 L46,68 L38,68 L38,63 L31,63 L31,61 L38,61 L38,46 L39,44 L34,44 L34,42 L38,42 L38,40 L34,40 L34,38 L38,38 L38,26 L31,25 L31,22 L37,22 L35,16 L32,12 L27,11 L2,10 L-84,10 L-84,9 L-17,8 L-20,7 L-20,2 L-88,2 L-88,1 L-2,1 L0,2 Z " fill="#346AB3" transform="translate(525,430)"/>
<path d="M0,0 L8,0 L8,6 L6,9 L-4,9 L-4,11 L3,10 L14,10 L14,13 L2,14 L-6,18 L-35,18 L-35,16 L-27,16 L-27,14 L-36,14 L-36,16 L-50,16 L-50,18 L-61,18 L-61,13 L-54,12 L-54,11 L-123,10 L-123,9 L-31,9 L-6,8 L-1,3 Z " fill="#376DCF" transform="translate(562,515)"/>
<path d="M0,0 L5,0 L18,8 L29,15 L29,19 L14,28 L4,34 L-1,33 L-1,1 Z " fill="#427CDD" transform="translate(266,465)"/>
<path d="M0,0 L5,2 L26,15 L28,17 L28,20 L6,33 L3,35 L-2,34 L-2,2 Z " fill="#417CE0" transform="translate(708,464)"/>
<path d="M0,0 L7,1 L27,14 L29,15 L29,19 L14,28 L4,34 L0,34 Z " fill="#3E78DA" transform="translate(486,465)"/>
<path d="M0,0 L13,0 L13,2 L2,2 L2,75 L100,75 L101,77 L0,77 Z " fill="#3D64B5" transform="translate(851,477)"/>
<path d="M0,0 L1,0 L1,60 L0,61 L-12,61 L-12,59 L-8,59 L-8,41 L-7,37 L-15,37 L-15,35 L-8,35 L-8,26 L-3,26 L-2,24 L-1,26 Z " fill="#3766B9" transform="translate(650,452)"/>
<path d="M0,0 L27,1 L35,4 L38,7 L26,7 L26,9 L3,9 L3,7 L-6,7 L-6,2 L0,2 Z " fill="#386FC9" transform="translate(525,430)"/>
<path d="M0,0 L90,0 L90,1 L85,2 L84,5 L87,7 L73,7 L73,9 L62,9 L62,4 L69,3 L69,2 L0,1 Z " fill="#2C4E91" transform="translate(439,524)"/>
<path d="M0,0 L8,0 L8,6 L6,9 L-4,9 L-4,11 L-9,12 L-10,15 L-19,14 L-20,12 L-31,10 L-31,9 L-6,8 L-1,3 Z " fill="#2D5092" transform="translate(562,515)"/>
<path d="M0,0 L1,0 L1,24 L-6,24 L-6,2 L0,2 Z " fill="#4279DD" transform="translate(649,487)"/>
<path d="M0,0 L1,0 L1,9 L9,9 L9,11 L0,11 L-5,10 L-5,12 L0,12 L1,17 L-4,17 L-4,19 L0,19 L0,21 L-3,21 L-3,23 L0,24 L-8,24 L-8,19 L-15,19 L-15,17 L-8,17 L-8,2 L-7,2 L-6,9 L0,9 Z " fill="#3560B3" transform="translate(571,474)"/>
<path d="M0,0 L14,0 L17,5 L17,8 L24,8 L24,10 L10,10 L4,3 L0,2 Z " fill="#3A78C7" transform="translate(553,439)"/>
<path d="M0,0 L13,0 L13,2 L2,2 L2,75 L1,75 Z " fill="#365A9B" transform="translate(851,477)"/>
<path d="M0,0 L8,0 L8,6 L6,9 L-4,8 L-4,6 L-1,3 Z " fill="#3C73E1" transform="translate(562,515)"/>
<path d="M0,0 L7,0 L12,1 L12,10 L6,10 L5,13 L5,1 L0,1 Z " fill="#3D76D6" transform="translate(559,473)"/>
<path d="M0,0 L2,0 L3,39 L4,40 L4,45 L-1,45 L-2,40 L0,39 Z " fill="#3F96CA" transform="translate(497,537)"/>
<path d="M0,0 L15,1 L15,2 L5,2 L5,6 L7,6 L8,11 L6,11 L6,8 L-6,7 L-6,4 L0,4 Z " fill="#2F74A7" transform="translate(562,448)"/>
<path d="M0,0 L8,0 L8,1 L3,1 L3,3 L8,3 L8,5 L5,5 L6,10 L8,11 L0,11 Z " fill="#3972D7" transform="translate(563,500)"/>
</svg>
