<svg xmlns="http://www.w3.org/2000/svg" viewBox="0 0 274.5 64.0" width="274.5" height="64.0" role="img" aria-label="vectorreel">
  <title>vectorreel logo (colour)</title>
  <!-- mark -->
  <rect x="3.5" y="8.5" width="57" height="47" rx="9.5" fill="none" stroke="#0B1020" stroke-width="5"/>
  <path d="M16 21.5 L16 42.5 L31 32 Z" fill="#0B1020"/>
  <rect x="36" y="21.5" width="17" height="5" rx="2.5" fill="#4F6BFF"/>
  <rect x="36" y="29.5" width="17" height="5" rx="2.5" fill="#4F6BFF"/>
  <rect x="36" y="37.5" width="10" height="5" rx="2.5" fill="#2DD4BF"/>
  <!-- wordmark: Inter Medium, outlined to paths (no webfont dependency) -->
  <g fill="#0B1020" transform="translate(82.00 43.00) scale(0.019678 -0.019678)">
    <path transform="translate(0.0 0)" d="M468 0 46 1118H284L505 483Q542 378 568.0 272.5Q594 167 623 63H557Q585 167 611.0 272.5Q637 378 673 483L894 1118H1130L708 0Z"/>
    <path transform="translate(1152.4 0)" d="M630 -23Q465 -23 345.0 48.0Q225 119 160.5 248.0Q96 377 96 551Q96 723 159.5 854.0Q223 985 339.0 1058.5Q455 1132 611 1132Q707 1132 796.0 1100.5Q885 1069 956.0 1002.0Q1027 935 1068.5 828.5Q1110 722 1110 570V492H219V656H997L894 602Q894 705 862.0 783.5Q830 862 767.5 906.0Q705 950 611 950Q518 950 452.0 905.0Q386 860 351.5 786.5Q317 713 317 626V514Q317 399 356.5 319.5Q396 240 467.0 199.5Q538 159 632 159Q694 159 744.0 176.5Q794 194 830.5 229.5Q867 265 886 317L1093 268Q1066 182 1002.5 116.0Q939 50 844.5 13.5Q750 -23 630 -23Z"/>
    <path transform="translate(2330.8 0)" d="M618 -23Q460 -23 343.0 49.0Q226 121 161.0 251.0Q96 381 96 553Q96 727 161.0 857.5Q226 988 343.0 1060.0Q460 1132 618 1132Q705 1132 781.0 1109.5Q857 1087 918.5 1044.5Q980 1002 1022.5 940.5Q1065 879 1086 802L877 752Q866 795 843.0 830.5Q820 866 787.5 892.0Q755 918 712.5 932.0Q670 946 619 946Q518 946 451.5 892.5Q385 839 352.5 750.0Q320 661 320 553Q320 446 352.5 357.5Q385 269 451.5 216.0Q518 163 619 163Q671 163 714.0 177.5Q757 192 791.0 218.5Q825 245 848.0 282.5Q871 320 881 365L1089 315Q1069 236 1026.0 173.5Q983 111 921.5 67.0Q860 23 783.0 0.0Q706 -23 618 -23Z"/>
    <path transform="translate(3488.3 0)" d="M626 1118V939H20V1118ZM183 1384H403V302Q403 235 431.5 203.5Q460 172 525 172Q542 172 570.0 176.0Q598 180 618 184L657 8Q622 -4 582.0 -9.5Q542 -15 503 -15Q351 -15 267.0 63.5Q183 142 183 284Z"/>
    <path transform="translate(4160.7 0)" d="M618 -23Q461 -23 343.5 49.0Q226 121 161.0 251.0Q96 381 96 553Q96 727 161.0 857.5Q226 988 343.5 1060.0Q461 1132 618 1132Q776 1132 893.5 1060.0Q1011 988 1076.0 857.5Q1141 727 1141 553Q1141 381 1076.0 251.0Q1011 121 893.5 49.0Q776 -23 618 -23ZM618 163Q720 163 786.5 216.5Q853 270 885.5 358.5Q918 447 918 553Q918 660 885.5 749.5Q853 839 786.5 892.5Q720 946 618 946Q517 946 451.0 892.5Q385 839 352.5 750.0Q320 661 320 553Q320 447 352.5 358.5Q385 270 451.0 216.5Q517 163 618 163Z"/>
    <path transform="translate(5373.1 0)" d="M148 0V1118H361V938H373Q404 1030 481.0 1082.0Q558 1134 656 1134Q677 1134 704.0 1132.5Q731 1131 749 1128V918Q737 922 703.0 926.0Q669 930 634 930Q558 930 497.0 898.0Q436 866 402.0 809.5Q368 753 368 679V0Z"/>
    <path transform="translate(6140.5 0)" d="M148 0V1118H361V938H373Q404 1030 481.0 1082.0Q558 1134 656 1134Q677 1134 704.0 1132.5Q731 1131 749 1128V918Q737 922 703.0 926.0Q669 930 634 930Q558 930 497.0 898.0Q436 866 402.0 809.5Q368 753 368 679V0Z"/>
    <path transform="translate(6908.0 0)" d="M630 -23Q465 -23 345.0 48.0Q225 119 160.5 248.0Q96 377 96 551Q96 723 159.5 854.0Q223 985 339.0 1058.5Q455 1132 611 1132Q707 1132 796.0 1100.5Q885 1069 956.0 1002.0Q1027 935 1068.5 828.5Q1110 722 1110 570V492H219V656H997L894 602Q894 705 862.0 783.5Q830 862 767.5 906.0Q705 950 611 950Q518 950 452.0 905.0Q386 860 351.5 786.5Q317 713 317 626V514Q317 399 356.5 319.5Q396 240 467.0 199.5Q538 159 632 159Q694 159 744.0 176.5Q794 194 830.5 229.5Q867 265 886 317L1093 268Q1066 182 1002.5 116.0Q939 50 844.5 13.5Q750 -23 630 -23Z"/>
    <path transform="translate(8086.4 0)" d="M630 -23Q465 -23 345.0 48.0Q225 119 160.5 248.0Q96 377 96 551Q96 723 159.5 854.0Q223 985 339.0 1058.5Q455 1132 611 1132Q707 1132 796.0 1100.5Q885 1069 956.0 1002.0Q1027 935 1068.5 828.5Q1110 722 1110 570V492H219V656H997L894 602Q894 705 862.0 783.5Q830 862 767.5 906.0Q705 950 611 950Q518 950 452.0 905.0Q386 860 351.5 786.5Q317 713 317 626V514Q317 399 356.5 319.5Q396 240 467.0 199.5Q538 159 632 159Q694 159 744.0 176.5Q794 194 830.5 229.5Q867 265 886 317L1093 268Q1066 182 1002.5 116.0Q939 50 844.5 13.5Q750 -23 630 -23Z"/>
    <path transform="translate(9264.8 0)" d="M368 1490V0H148V1490Z"/>
  </g>
</svg>
