<?xml version="1.0" encoding="UTF-8"?>
<!-- Generator: visioncortex VTracer 0.6.12 -->
<svg version="1.1" xmlns="http://www.w3.org/2000/svg" width="1200" height="630">
<path d="M0,0 L1200,0 L1200,630 L0,630 Z " fill="#15131C" transform="translate(0,0)"/>
<path d="M0,0 L84,0 L84,53 L43,53 L43,66 L96,66 L96,31 L110,31 L111,32 L112,29 L208,29 L208,38 L112,38 L112,40 L161,40 L161,51 L163,51 L163,66 L211,66 L211,52 L214,52 L214,67 L279,67 L279,49 L268,49 L268,41 L330,41 L330,49 L282,49 L282,67 L399,67 L399,49 L349,49 L349,29 L387,29 L389,31 L390,29 L454,29 L454,38 L402,39 L418,40 L418,49 L401,49 L401,67 L454,67 L454,63 L469,63 L469,78 L454,78 L454,74 L401,74 L401,92 L271,92 L271,75 L237,75 L237,89 L234,89 L234,74 L214,74 L214,89 L212,89 L212,74 L197,74 L197,105 L104,105 L104,75 L58,75 L58,83 L93,83 L93,128 L22,128 L22,83 L56,83 L56,74 L-16,74 L-16,82 L12,82 L12,120 L-46,120 L-46,82 L-18,82 L-18,75 L-129,75 L-129,89 L-131,89 L-131,74 L-172,74 L-172,89 L-175,89 L-175,75 L-197,75 L-197,78 L-212,78 L-212,63 L-197,63 L-197,66 L-175,66 L-175,52 L-172,52 L-172,67 L-153,67 L-153,52 L-151,52 L-151,67 L-131,67 L-131,52 L-129,52 L-129,67 L-44,67 L-44,59 L-72,59 L-72,20 L-13,20 L-13,59 L-42,59 L-42,67 L40,67 L40,53 L0,53 Z " fill="#3E4CC9" transform="translate(616,260)"/>
<path d="M0,0 L38,0 L40,2 L41,0 L105,0 L105,9 L53,10 L69,11 L69,20 L52,20 L52,38 L105,38 L105,34 L120,34 L120,49 L105,49 L105,45 L52,45 L52,63 L-78,63 L-78,46 L-112,46 L-112,60 L-115,60 L-115,45 L-135,45 L-135,60 L-137,60 L-137,45 L-152,45 L-152,76 L-244,76 L-244,46 L-243,46 L-243,74 L-154,74 L-154,45 L-211,45 L-211,38 L-189,38 L-189,23 L-187,23 L-187,38 L-137,38 L-137,23 L-135,23 L-135,38 L-70,38 L-70,20 L-81,20 L-81,12 L-19,12 L-19,20 L-67,20 L-67,38 L50,38 L50,20 L0,20 Z " fill="#3D4BCE" transform="translate(965,289)"/>
<path d="M0,0 L80,0 L80,49 L0,49 Z " fill="#16141E" transform="translate(618,262)"/>
<path d="M0,0 L96,0 L96,9 L0,9 L0,11 L49,11 L49,22 L51,22 L51,37 L99,37 L99,23 L100,23 L100,38 L50,38 L50,23 L48,23 L48,38 L26,38 L26,36 L14,37 L-13,37 L-13,4 L-1,3 Z " fill="#181927" transform="translate(728,289)"/>
<path d="M0,0 L66,0 L66,40 L0,40 Z " fill="#15131B" transform="translate(640,346)"/>
<path d="M0,0 L58,0 L58,29 L-30,29 L-30,1 L-10,1 L-10,3 L0,3 Z " fill="#15141D" transform="translate(753,334)"/>
<path d="M0,0 L55,0 L55,35 L0,35 Z " fill="#16141F" transform="translate(546,282)"/>
<path d="M0,0 L125,0 L125,15 L0,15 Z " fill="#15131D" transform="translate(890,335)"/>
<path d="M0,0 L54,0 L54,34 L0,34 Z " fill="#15141D" transform="translate(572,344)"/>
<path d="M0,0 L38,0 L40,2 L41,0 L105,0 L105,9 L53,10 L69,11 L69,12 L0,12 Z " fill="#1C3547" transform="translate(965,289)"/>
<path d="M0,0 L105,0 L105,8 L0,8 Z " fill="#3C49CA" transform="translate(965,278)"/>
<path d="M0,0 L103,0 L103,8 L0,8 Z " fill="#3E4CCB" transform="translate(843,289)"/>
<path d="M0,0 L96,0 L96,8 L0,8 Z " fill="#3F4BC7" transform="translate(728,289)"/>
<path d="M0,0 L102,0 L102,7 L0,7 Z " fill="#3F4ED6" transform="translate(843,255)"/>
<path d="M0,0 L101,0 L101,7 L0,7 Z " fill="#404CD6" transform="translate(844,278)"/>
<path d="M0,0 L81,0 L81,8 L0,8 Z " fill="#19D4BA" transform="translate(989,266)"/>
<path d="M0,0 L1,0 L1,9 L36,9 L36,54 L-35,54 L-35,9 L0,9 Z M-33,12 L-33,52 L33,52 L33,12 Z " fill="#3B49B8" transform="translate(673,334)"/>
<path d="M0,0 L64,0 L64,8 L0,8 Z " fill="#3C4CCF" transform="translate(1006,289)"/>
<path d="M0,0 L67,0 L67,7 L0,7 Z " fill="#3C4BD6" transform="translate(966,255)"/>
<path d="M0,0 L83,0 L83,53 L42,53 L42,66 L95,66 L95,31 L109,31 L109,32 L96,32 L96,67 L41,67 L41,52 L82,52 L81,2 L1,2 L1,51 L0,51 Z " fill="#3741AA" transform="translate(617,260)"/>
<path d="M0,0 L48,0 L48,8 L0,8 Z " fill="#19D6BB" transform="translate(728,301)"/>
<path d="M0,0 L59,0 L59,39 L29,39 L29,47 L28,47 L28,39 L0,39 Z M2,2 L2,37 L57,37 L57,2 Z " fill="#404CCB" transform="translate(544,280)"/>
<path d="M0,0 L53,0 L53,7 L0,7 Z " fill="#3F4DD6" transform="translate(729,278)"/>
<path d="M0,0 L58,0 L58,38 L0,38 Z M2,2 L2,36 L56,36 L56,2 Z " fill="#404CCB" transform="translate(570,342)"/>
<path d="M0,0 L44,0 L44,8 L0,8 Z " fill="#3B4AD0" transform="translate(780,301)"/>
<path d="M0,0 L39,0 L39,9 L0,9 Z " fill="#1BC4B2" transform="translate(785,277)"/>
<path d="M0,0 L38,0 L38,8 L0,8 Z " fill="#15D3BC" transform="translate(843,301)"/>
<path d="M0,0 L37,0 L37,8 L0,8 Z " fill="#16D5BB" transform="translate(881,266)"/>
<path d="M0,0 L1,0 L1,15 L127,14 L128,2 L129,2 L129,17 L0,17 Z " fill="#3E4FD4" transform="translate(888,335)"/>
<path d="M0,0 L35,0 L35,8 L0,8 Z " fill="#3C4ACC" transform="translate(843,266)"/>
<path d="M0,0 L37,0 L37,7 L0,7 Z " fill="#18DBBD" transform="translate(965,290)"/>
<path d="M0,0 L15,0 L15,15 L0,15 Z " fill="#17CEBF" transform="translate(1070,323)"/>
<path d="M0,0 L15,0 L15,15 L0,15 Z " fill="#16CABC" transform="translate(404,323)"/>
<path d="M0,0 L31,0 L31,7 L0,7 Z " fill="#3B4CD5" transform="translate(1038,255)"/>
<path d="M0,0 L25,0 L25,8 L0,8 Z " fill="#3C48CE" transform="translate(921,266)"/>
<path d="M0,0 L91,0 L90,2 L26,2 L26,11 L25,9 L23,9 L23,2 L10,2 L0,1 Z " fill="#130D10" transform="translate(855,263)"/>
<path d="M0,0 L21,0 L21,8 L0,8 Z " fill="#3E4BCD" transform="translate(965,266)"/>
<path d="M0,0 L2,0 L2,2 L40,2 L38,5 L1,5 L0,4 L-35,3 L-35,2 L0,2 Z " fill="#1A1E28" transform="translate(878,272)"/>
<path d="M0,0 L12,0 L12,9 L11,12 L1,12 L0,10 Z " fill="#15D5C7" transform="translate(742,325)"/>
<path d="M0,0 L28,1 L28,2 L3,2 L2,5 L1,10 L0,10 L0,2 L-37,2 L-37,1 Z " fill="#19212D" transform="translate(918,264)"/>
<path d="M0,0 L2,1 L2,7 L27,7 L27,9 L-3,9 L-1,6 Z " fill="#110F12" transform="translate(919,268)"/>
<path d="M0,0 L41,0 L41,1 L15,2 L12,3 L0,3 Z " fill="#131010" transform="translate(965,286)"/>
</svg>
